<mxfile host="app.diagrams.net" agent="Mozilla/5.0 (Windows NT 10.0; Win64; x64) AppleWebKit/537.36 (KHTML, like Gecko) Chrome/130.0.0.0 Safari/537.36" version="24.8.4">
  <diagram name="PÃ¡gina-1" id="SKRLu6_MuARgDEXjkevO">
    <mxGraphModel dx="2501" dy="1907" grid="1" gridSize="10" guides="1" tooltips="1" connect="1" arrows="1" fold="1" page="1" pageScale="1" pageWidth="827" pageHeight="1169" math="0" shadow="0">
      <root>
        <mxCell id="0" />
        <mxCell id="1" parent="0" />
        <mxCell id="TCKFNK1VzcnC_DEqVwrI-56" value="" style="rounded=0;whiteSpace=wrap;html=1;fillColor=none;" parent="1" vertex="1">
          <mxGeometry x="-346" y="-450" width="916" height="370" as="geometry" />
        </mxCell>
        <mxCell id="TCKFNK1VzcnC_DEqVwrI-37" value="" style="rounded=0;whiteSpace=wrap;html=1;fillColor=none;" parent="1" vertex="1">
          <mxGeometry x="-420" y="140" width="930" height="440" as="geometry" />
        </mxCell>
        <mxCell id="TCKFNK1VzcnC_DEqVwrI-40" value="" style="rounded=0;whiteSpace=wrap;html=1;fillColor=none;" parent="1" vertex="1">
          <mxGeometry x="640" y="-122" width="330" height="732" as="geometry" />
        </mxCell>
        <mxCell id="TCKFNK1VzcnC_DEqVwrI-8" value="Level" style="swimlane;fontStyle=0;childLayout=stackLayout;horizontal=1;startSize=52;fillColor=none;horizontalStack=0;resizeParent=1;resizeParentMax=0;resizeLast=0;collapsible=1;marginBottom=0;whiteSpace=wrap;html=1;" parent="1" vertex="1">
          <mxGeometry x="710" y="-30" width="140" height="52" as="geometry" />
        </mxCell>
        <mxCell id="TCKFNK1VzcnC_DEqVwrI-10" value="Enemy" style="swimlane;fontStyle=0;childLayout=stackLayout;horizontal=1;startSize=26;fillColor=none;horizontalStack=0;resizeParent=1;resizeParentMax=0;resizeLast=0;collapsible=1;marginBottom=0;whiteSpace=wrap;html=1;" parent="1" vertex="1">
          <mxGeometry x="670" y="240" width="140" height="52" as="geometry" />
        </mxCell>
        <mxCell id="ENG01ewXfub_soL2wW_B-7" style="edgeStyle=orthogonalEdgeStyle;rounded=0;orthogonalLoop=1;jettySize=auto;html=1;endArrow=none;endFill=0;" parent="1" source="TCKFNK1VzcnC_DEqVwrI-21" target="TCKFNK1VzcnC_DEqVwrI-10" edge="1">
          <mxGeometry relative="1" as="geometry" />
        </mxCell>
        <mxCell id="TCKFNK1VzcnC_DEqVwrI-21" value="&lt;div&gt;EnemyFactory&lt;/div&gt;" style="swimlane;fontStyle=0;childLayout=stackLayout;horizontal=1;startSize=40;fillColor=none;horizontalStack=0;resizeParent=1;resizeParentMax=0;resizeLast=0;collapsible=1;marginBottom=0;whiteSpace=wrap;html=1;" parent="1" vertex="1">
          <mxGeometry x="730" y="70" width="130" height="40" as="geometry">
            <mxRectangle x="770" y="60" width="130" height="40" as="alternateBounds" />
          </mxGeometry>
        </mxCell>
        <mxCell id="TCKFNK1VzcnC_DEqVwrI-25" value="Character" style="swimlane;fontStyle=0;childLayout=stackLayout;horizontal=1;startSize=26;fillColor=none;horizontalStack=0;resizeParent=1;resizeParentMax=0;resizeLast=0;collapsible=1;marginBottom=0;whiteSpace=wrap;html=1;" parent="1" vertex="1">
          <mxGeometry x="310" y="270" width="140" height="52" as="geometry" />
        </mxCell>
        <mxCell id="TCKFNK1VzcnC_DEqVwrI-38" value="Agent Layer" style="html=1;whiteSpace=wrap;" parent="1" vertex="1">
          <mxGeometry x="-420" y="100" width="150" height="40" as="geometry" />
        </mxCell>
        <mxCell id="TCKFNK1VzcnC_DEqVwrI-41" value="Scene Layer" style="html=1;whiteSpace=wrap;" parent="1" vertex="1">
          <mxGeometry x="640" y="-162" width="150" height="40" as="geometry" />
        </mxCell>
        <mxCell id="TCKFNK1VzcnC_DEqVwrI-52" style="edgeStyle=orthogonalEdgeStyle;rounded=0;orthogonalLoop=1;jettySize=auto;html=1;endArrow=none;endFill=0;" parent="1" source="TCKFNK1VzcnC_DEqVwrI-43" edge="1">
          <mxGeometry relative="1" as="geometry">
            <mxPoint x="60" y="-344" as="targetPoint" />
            <Array as="points">
              <mxPoint x="-100" y="-324" />
              <mxPoint x="60" y="-324" />
            </Array>
          </mxGeometry>
        </mxCell>
        <mxCell id="TCKFNK1VzcnC_DEqVwrI-43" value="DataManager" style="swimlane;fontStyle=0;childLayout=stackLayout;horizontal=1;startSize=26;fillColor=none;horizontalStack=0;resizeParent=1;resizeParentMax=0;resizeLast=0;collapsible=1;marginBottom=0;whiteSpace=wrap;html=1;" parent="1" vertex="1">
          <mxGeometry x="-170" y="-294" width="140" height="52" as="geometry" />
        </mxCell>
        <mxCell id="TCKFNK1VzcnC_DEqVwrI-46" style="edgeStyle=orthogonalEdgeStyle;rounded=0;orthogonalLoop=1;jettySize=auto;html=1;entryX=0.25;entryY=1;entryDx=0;entryDy=0;endArrow=none;endFill=0;" parent="1" source="TCKFNK1VzcnC_DEqVwrI-44" target="TCKFNK1VzcnC_DEqVwrI-43" edge="1">
          <mxGeometry relative="1" as="geometry" />
        </mxCell>
        <mxCell id="TCKFNK1VzcnC_DEqVwrI-44" value="Score" style="swimlane;fontStyle=0;childLayout=stackLayout;horizontal=1;startSize=26;fillColor=none;horizontalStack=0;resizeParent=1;resizeParentMax=0;resizeLast=0;collapsible=1;marginBottom=0;whiteSpace=wrap;html=1;" parent="1" vertex="1">
          <mxGeometry x="-200" y="-168" width="140" height="52" as="geometry" />
        </mxCell>
        <mxCell id="TCKFNK1VzcnC_DEqVwrI-53" style="edgeStyle=orthogonalEdgeStyle;rounded=0;orthogonalLoop=1;jettySize=auto;html=1;endArrow=none;endFill=0;" parent="1" source="TCKFNK1VzcnC_DEqVwrI-48" edge="1">
          <mxGeometry relative="1" as="geometry">
            <mxPoint x="90" y="-344" as="targetPoint" />
          </mxGeometry>
        </mxCell>
        <mxCell id="TCKFNK1VzcnC_DEqVwrI-48" value="SceneManager" style="swimlane;fontStyle=0;childLayout=stackLayout;horizontal=1;startSize=26;fillColor=none;horizontalStack=0;resizeParent=1;resizeParentMax=0;resizeLast=0;collapsible=1;marginBottom=0;whiteSpace=wrap;html=1;" parent="1" vertex="1">
          <mxGeometry x="40" y="-294" width="140" height="52" as="geometry" />
        </mxCell>
        <mxCell id="TCKFNK1VzcnC_DEqVwrI-54" style="edgeStyle=orthogonalEdgeStyle;rounded=0;orthogonalLoop=1;jettySize=auto;html=1;endArrow=none;endFill=0;" parent="1" source="TCKFNK1VzcnC_DEqVwrI-49" edge="1">
          <mxGeometry relative="1" as="geometry">
            <mxPoint x="120" y="-344" as="targetPoint" />
            <Array as="points">
              <mxPoint x="294" y="-324" />
              <mxPoint x="120" y="-324" />
            </Array>
          </mxGeometry>
        </mxCell>
        <mxCell id="TCKFNK1VzcnC_DEqVwrI-49" value="StateMachine" style="swimlane;fontStyle=0;childLayout=stackLayout;horizontal=1;startSize=26;fillColor=none;horizontalStack=0;resizeParent=1;resizeParentMax=0;resizeLast=0;collapsible=1;marginBottom=0;whiteSpace=wrap;html=1;" parent="1" vertex="1">
          <mxGeometry x="224" y="-294" width="140" height="52" as="geometry" />
        </mxCell>
        <mxCell id="TCKFNK1VzcnC_DEqVwrI-55" style="edgeStyle=orthogonalEdgeStyle;rounded=0;orthogonalLoop=1;jettySize=auto;html=1;entryX=1;entryY=0.75;entryDx=0;entryDy=0;endArrow=none;endFill=0;" parent="1" source="TCKFNK1VzcnC_DEqVwrI-50" target="TCKFNK1VzcnC_DEqVwrI-51" edge="1">
          <mxGeometry relative="1" as="geometry">
            <Array as="points">
              <mxPoint x="460" y="-355" />
            </Array>
          </mxGeometry>
        </mxCell>
        <mxCell id="TCKFNK1VzcnC_DEqVwrI-50" value="SoundManager" style="swimlane;fontStyle=0;childLayout=stackLayout;horizontal=1;startSize=26;fillColor=none;horizontalStack=0;resizeParent=1;resizeParentMax=0;resizeLast=0;collapsible=1;marginBottom=0;whiteSpace=wrap;html=1;" parent="1" vertex="1">
          <mxGeometry x="390" y="-294" width="140" height="52" as="geometry" />
        </mxCell>
        <mxCell id="TCKFNK1VzcnC_DEqVwrI-51" value="GameManager" style="swimlane;fontStyle=0;childLayout=stackLayout;horizontal=1;startSize=26;fillColor=none;horizontalStack=0;resizeParent=1;resizeParentMax=0;resizeLast=0;collapsible=1;marginBottom=0;whiteSpace=wrap;html=1;" parent="1" vertex="1">
          <mxGeometry x="30" y="-394" width="140" height="52" as="geometry" />
        </mxCell>
        <mxCell id="TCKFNK1VzcnC_DEqVwrI-57" value="Managers Layer" style="html=1;whiteSpace=wrap;" parent="1" vertex="1">
          <mxGeometry x="-346" y="-490" width="150" height="40" as="geometry" />
        </mxCell>
        <mxCell id="i8LpLfV0pfPGF9ZgEP0s-3" value="Player" style="swimlane;fontStyle=0;childLayout=stackLayout;horizontal=1;startSize=26;fillColor=none;horizontalStack=0;resizeParent=1;resizeParentMax=0;resizeLast=0;collapsible=1;marginBottom=0;whiteSpace=wrap;html=1;" parent="1" vertex="1">
          <mxGeometry x="290" y="440" width="140" height="52" as="geometry" />
        </mxCell>
        <mxCell id="i8LpLfV0pfPGF9ZgEP0s-10" value="EffectsManager" style="swimlane;fontStyle=0;childLayout=stackLayout;horizontal=1;startSize=26;fillColor=none;horizontalStack=0;resizeParent=1;resizeParentMax=0;resizeLast=0;collapsible=1;marginBottom=0;whiteSpace=wrap;html=1;" parent="1" vertex="1">
          <mxGeometry x="800" y="350" width="140" height="52" as="geometry" />
        </mxCell>
        <mxCell id="i8LpLfV0pfPGF9ZgEP0s-11" value="CollisionManager" style="swimlane;fontStyle=0;childLayout=stackLayout;horizontal=1;startSize=26;fillColor=none;horizontalStack=0;resizeParent=1;resizeParentMax=0;resizeLast=0;collapsible=1;marginBottom=0;whiteSpace=wrap;html=1;" parent="1" vertex="1">
          <mxGeometry x="700" y="470" width="140" height="52" as="geometry" />
        </mxCell>
        <mxCell id="i8LpLfV0pfPGF9ZgEP0s-12" value="Proyectile" style="swimlane;fontStyle=0;childLayout=stackLayout;horizontal=1;startSize=26;fillColor=none;horizontalStack=0;resizeParent=1;resizeParentMax=0;resizeLast=0;collapsible=1;marginBottom=0;whiteSpace=wrap;html=1;" parent="1" vertex="1">
          <mxGeometry x="-210" y="220" width="140" height="52" as="geometry" />
        </mxCell>
        <mxCell id="i8LpLfV0pfPGF9ZgEP0s-13" value="PlayerController" style="swimlane;fontStyle=0;childLayout=stackLayout;horizontal=1;startSize=26;fillColor=none;horizontalStack=0;resizeParent=1;resizeParentMax=0;resizeLast=0;collapsible=1;marginBottom=0;whiteSpace=wrap;html=1;" parent="1" vertex="1">
          <mxGeometry x="40" y="470" width="140" height="52" as="geometry" />
        </mxCell>
        <mxCell id="i8LpLfV0pfPGF9ZgEP0s-15" style="edgeStyle=orthogonalEdgeStyle;rounded=0;orthogonalLoop=1;jettySize=auto;html=1;endArrow=none;endFill=0;entryX=1;entryY=0.5;entryDx=0;entryDy=0;exitX=0;exitY=0.5;exitDx=0;exitDy=0;" parent="1" source="i8LpLfV0pfPGF9ZgEP0s-3" target="i8LpLfV0pfPGF9ZgEP0s-13" edge="1">
          <mxGeometry relative="1" as="geometry">
            <mxPoint x="680" y="276" as="sourcePoint" />
            <mxPoint x="460" y="306" as="targetPoint" />
          </mxGeometry>
        </mxCell>
        <mxCell id="i8LpLfV0pfPGF9ZgEP0s-16" value="Gun" style="swimlane;fontStyle=0;childLayout=stackLayout;horizontal=1;startSize=26;fillColor=none;horizontalStack=0;resizeParent=1;resizeParentMax=0;resizeLast=0;collapsible=1;marginBottom=0;whiteSpace=wrap;html=1;" parent="1" vertex="1">
          <mxGeometry x="84" y="312" width="140" height="52" as="geometry" />
        </mxCell>
        <mxCell id="i8LpLfV0pfPGF9ZgEP0s-18" style="edgeStyle=orthogonalEdgeStyle;rounded=0;orthogonalLoop=1;jettySize=auto;html=1;endArrow=none;endFill=0;exitX=1;exitY=0.5;exitDx=0;exitDy=0;entryX=0.203;entryY=0.047;entryDx=0;entryDy=0;entryPerimeter=0;" parent="1" source="i8LpLfV0pfPGF9ZgEP0s-16" target="i8LpLfV0pfPGF9ZgEP0s-3" edge="1">
          <mxGeometry relative="1" as="geometry">
            <mxPoint x="390" y="332" as="sourcePoint" />
            <mxPoint x="370" y="450" as="targetPoint" />
          </mxGeometry>
        </mxCell>
        <mxCell id="i8LpLfV0pfPGF9ZgEP0s-20" value="Magic" style="swimlane;fontStyle=0;childLayout=stackLayout;horizontal=1;startSize=26;fillColor=none;horizontalStack=0;resizeParent=1;resizeParentMax=0;resizeLast=0;collapsible=1;marginBottom=0;whiteSpace=wrap;html=1;" parent="1" vertex="1">
          <mxGeometry x="-300" y="380" width="140" height="52" as="geometry" />
        </mxCell>
        <mxCell id="i8LpLfV0pfPGF9ZgEP0s-22" value="Bullet" style="swimlane;fontStyle=0;childLayout=stackLayout;horizontal=1;startSize=26;fillColor=none;horizontalStack=0;resizeParent=1;resizeParentMax=0;resizeLast=0;collapsible=1;marginBottom=0;whiteSpace=wrap;html=1;" parent="1" vertex="1">
          <mxGeometry x="-140" y="380" width="140" height="52" as="geometry" />
        </mxCell>
        <mxCell id="36lolaeUbSaee6-nb28m-3" value="Extends" style="endArrow=block;endSize=16;endFill=0;html=1;rounded=0;exitX=0.5;exitY=0;exitDx=0;exitDy=0;" parent="1" source="i8LpLfV0pfPGF9ZgEP0s-20" edge="1">
          <mxGeometry width="160" relative="1" as="geometry">
            <mxPoint x="-120" y="292" as="sourcePoint" />
            <mxPoint x="-150" y="270" as="targetPoint" />
          </mxGeometry>
        </mxCell>
        <mxCell id="36lolaeUbSaee6-nb28m-4" value="Extends" style="endArrow=block;endSize=16;endFill=0;html=1;rounded=0;exitX=0.5;exitY=0;exitDx=0;exitDy=0;entryX=0.75;entryY=1;entryDx=0;entryDy=0;" parent="1" source="i8LpLfV0pfPGF9ZgEP0s-22" target="i8LpLfV0pfPGF9ZgEP0s-12" edge="1">
          <mxGeometry width="160" relative="1" as="geometry">
            <mxPoint x="-110" y="302" as="sourcePoint" />
            <mxPoint x="-40" y="410" as="targetPoint" />
          </mxGeometry>
        </mxCell>
        <mxCell id="36lolaeUbSaee6-nb28m-5" value="Extends" style="endArrow=block;endSize=16;endFill=0;html=1;rounded=0;exitX=0.638;exitY=-0.01;exitDx=0;exitDy=0;entryX=0.5;entryY=1;entryDx=0;entryDy=0;exitPerimeter=0;" parent="1" source="i8LpLfV0pfPGF9ZgEP0s-3" target="TCKFNK1VzcnC_DEqVwrI-25" edge="1">
          <mxGeometry width="160" relative="1" as="geometry">
            <mxPoint x="-60" y="390" as="sourcePoint" />
            <mxPoint x="-95" y="282" as="targetPoint" />
          </mxGeometry>
        </mxCell>
        <mxCell id="36lolaeUbSaee6-nb28m-6" value="Extends" style="endArrow=block;endSize=16;endFill=0;html=1;rounded=0;exitX=0;exitY=0.5;exitDx=0;exitDy=0;entryX=1;entryY=0.5;entryDx=0;entryDy=0;" parent="1" source="TCKFNK1VzcnC_DEqVwrI-10" target="TCKFNK1VzcnC_DEqVwrI-25" edge="1">
          <mxGeometry width="160" relative="1" as="geometry">
            <mxPoint x="-50" y="400" as="sourcePoint" />
            <mxPoint x="-85" y="292" as="targetPoint" />
          </mxGeometry>
        </mxCell>
        <mxCell id="36lolaeUbSaee6-nb28m-10" style="edgeStyle=orthogonalEdgeStyle;rounded=0;orthogonalLoop=1;jettySize=auto;html=1;entryX=1;entryY=0.5;entryDx=0;entryDy=0;endArrow=none;endFill=0;exitX=0;exitY=0.5;exitDx=0;exitDy=0;" parent="1" source="i8LpLfV0pfPGF9ZgEP0s-16" target="i8LpLfV0pfPGF9ZgEP0s-12" edge="1">
          <mxGeometry relative="1" as="geometry">
            <mxPoint x="-120" y="-158" as="sourcePoint" />
            <mxPoint x="-125" y="-232" as="targetPoint" />
          </mxGeometry>
        </mxCell>
        <mxCell id="rLtjcpFpSSiGD27gfL3j-1" value="&lt;font style=&quot;font-size: 48px;&quot;&gt;PROYECTO ENRIQUE &amp;amp; JACOBO&lt;/font&gt;" style="text;html=1;align=center;verticalAlign=middle;resizable=0;points=[];autosize=1;strokeColor=none;fillColor=none;" vertex="1" parent="1">
          <mxGeometry x="-340" y="-752" width="780" height="70" as="geometry" />
        </mxCell>
      </root>
    </mxGraphModel>
  </diagram>
</mxfile>
